G04 EAGLE Gerber RS-274X export*
G75*
%MOMM*%
%FSLAX34Y34*%
%LPD*%
%IN*%
%IPPOS*%
%AMOC8*
5,1,8,0,0,1.08239X$1,22.5*%
G01*
%ADD10C,0.254000*%


D10*
X0Y0D02*
X609600Y0D01*
X609600Y787400D01*
X0Y787400D01*
X0Y0D01*
X535248Y338600D02*
X535982Y338528D01*
X536705Y338384D01*
X537410Y338170D01*
X538091Y337888D01*
X538740Y337541D01*
X539353Y337131D01*
X539923Y336664D01*
X540444Y336143D01*
X540911Y335573D01*
X541321Y334960D01*
X541668Y334311D01*
X541950Y333630D01*
X542164Y332925D01*
X542308Y332202D01*
X542380Y331468D01*
X542380Y330732D01*
X542308Y329998D01*
X542164Y329275D01*
X541950Y328570D01*
X541668Y327889D01*
X541321Y327240D01*
X540911Y326627D01*
X540444Y326057D01*
X539923Y325536D01*
X539353Y325069D01*
X538740Y324659D01*
X538091Y324312D01*
X537410Y324030D01*
X536705Y323816D01*
X535982Y323672D01*
X535248Y323600D01*
X534512Y323600D01*
X533778Y323672D01*
X533055Y323816D01*
X532350Y324030D01*
X531669Y324312D01*
X531020Y324659D01*
X530407Y325069D01*
X529837Y325536D01*
X529316Y326057D01*
X528849Y326627D01*
X528439Y327240D01*
X528092Y327889D01*
X527810Y328570D01*
X527596Y329275D01*
X527452Y329998D01*
X527380Y330732D01*
X527380Y331468D01*
X527452Y332202D01*
X527596Y332925D01*
X527810Y333630D01*
X528092Y334311D01*
X528439Y334960D01*
X528849Y335573D01*
X529316Y336143D01*
X529837Y336664D01*
X530407Y337131D01*
X531020Y337541D01*
X531669Y337888D01*
X532350Y338170D01*
X533055Y338384D01*
X533778Y338528D01*
X534512Y338600D01*
X535248Y338600D01*
X535248Y387600D02*
X535982Y387528D01*
X536705Y387384D01*
X537410Y387170D01*
X538091Y386888D01*
X538740Y386541D01*
X539353Y386131D01*
X539923Y385664D01*
X540444Y385143D01*
X540911Y384573D01*
X541321Y383960D01*
X541668Y383311D01*
X541950Y382630D01*
X542164Y381925D01*
X542308Y381202D01*
X542380Y380468D01*
X542380Y379732D01*
X542308Y378998D01*
X542164Y378275D01*
X541950Y377570D01*
X541668Y376889D01*
X541321Y376240D01*
X540911Y375627D01*
X540444Y375057D01*
X539923Y374536D01*
X539353Y374069D01*
X538740Y373659D01*
X538091Y373312D01*
X537410Y373030D01*
X536705Y372816D01*
X535982Y372672D01*
X535248Y372600D01*
X534512Y372600D01*
X533778Y372672D01*
X533055Y372816D01*
X532350Y373030D01*
X531669Y373312D01*
X531020Y373659D01*
X530407Y374069D01*
X529837Y374536D01*
X529316Y375057D01*
X528849Y375627D01*
X528439Y376240D01*
X528092Y376889D01*
X527810Y377570D01*
X527596Y378275D01*
X527452Y378998D01*
X527380Y379732D01*
X527380Y380468D01*
X527452Y381202D01*
X527596Y381925D01*
X527810Y382630D01*
X528092Y383311D01*
X528439Y383960D01*
X528849Y384573D01*
X529316Y385143D01*
X529837Y385664D01*
X530407Y386131D01*
X531020Y386541D01*
X531669Y386888D01*
X532350Y387170D01*
X533055Y387384D01*
X533778Y387528D01*
X534512Y387600D01*
X535248Y387600D01*
M02*
