G04 EAGLE Gerber RS-274X export*
G75*
%MOMM*%
%FSLAX34Y34*%
%LPD*%
%INSoldermask Bottom*%
%IPPOS*%
%AMOC8*
5,1,8,0,0,1.08239X$1,22.5*%
G01*
%ADD10C,1.703200*%
%ADD11R,1.853200X1.853200*%
%ADD12C,1.853200*%
%ADD13P,2.556822X8X22.500000*%
%ADD14R,4.267200X1.727200*%
%ADD15C,2.003200*%
%ADD16C,2.153200*%
%ADD17C,2.082800*%
%ADD18C,4.648200*%
%ADD19C,0.959600*%


D10*
X534880Y331100D03*
X534880Y380100D03*
D11*
X25400Y558800D03*
D12*
X25400Y533400D03*
X25400Y508000D03*
X25400Y482600D03*
X25400Y457200D03*
X25400Y431800D03*
X25400Y406400D03*
X25400Y381000D03*
D11*
X25400Y736600D03*
D12*
X25400Y762000D03*
D11*
X431800Y342900D03*
D12*
X431800Y368300D03*
D13*
X397510Y629920D03*
X400050Y464820D03*
X500380Y213360D03*
X102870Y109220D03*
X102870Y273050D03*
D14*
X30480Y134620D03*
X30480Y83820D03*
X30480Y298450D03*
X30480Y247650D03*
D15*
X469900Y63500D03*
D16*
X500888Y94488D03*
X438912Y94488D03*
X438912Y32512D03*
X500888Y32512D03*
D13*
X25400Y673100D03*
X25400Y622300D03*
D17*
X330200Y381000D03*
X254000Y381000D03*
X330200Y215900D03*
X254000Y215900D03*
D13*
X203200Y63500D03*
X203200Y228600D03*
X558800Y165100D03*
X558800Y520700D03*
D18*
X50800Y38100D03*
X558800Y38100D03*
X558800Y749300D03*
X63500Y698500D03*
D19*
X406400Y406400D03*
X393700Y368300D03*
X88900Y177800D03*
X50800Y330200D03*
X50800Y177800D03*
X457200Y241300D03*
X444500Y558800D03*
X419100Y584200D03*
X330200Y546100D03*
X381000Y508000D03*
X266700Y114300D03*
X266700Y469900D03*
X266700Y279400D03*
X266700Y635000D03*
X190500Y596900D03*
X368300Y762000D03*
X495300Y762000D03*
X558800Y622300D03*
X228600Y152400D03*
X228600Y317500D03*
X228600Y508000D03*
X228600Y673100D03*
X177800Y736600D03*
X152400Y190500D03*
X165100Y533400D03*
X101600Y685800D03*
X101600Y711200D03*
X101600Y596900D03*
X25400Y584200D03*
X152400Y457200D03*
X127000Y482600D03*
X38100Y368300D03*
X152400Y596900D03*
X152400Y660400D03*
X139700Y685800D03*
X165100Y203200D03*
X139700Y711200D03*
X152400Y546100D03*
M02*
