G04 EAGLE Gerber RS-274X export*
G75*
%MOMM*%
%FSLAX34Y34*%
%LPD*%
%INSolderpaste Top*%
%IPPOS*%
%AMOC8*
5,1,8,0,0,1.08239X$1,22.5*%
G01*
%ADD10R,1.000000X0.600000*%
%ADD11R,3.500000X1.250000*%
%ADD12R,2.000000X3.500000*%
%ADD13R,2.200000X0.650000*%
%ADD14R,0.800000X0.800000*%
%ADD15C,0.377400*%
%ADD16C,0.301600*%

G36*
X263752Y757303D02*
X263752Y757303D01*
X263754Y757301D01*
X264051Y757324D01*
X264055Y757328D01*
X264059Y757325D01*
X264349Y757395D01*
X264352Y757400D01*
X264356Y757397D01*
X264632Y757511D01*
X264635Y757517D01*
X264639Y757515D01*
X264893Y757671D01*
X264895Y757676D01*
X264899Y757675D01*
X265126Y757868D01*
X265127Y757874D01*
X265132Y757874D01*
X265325Y758101D01*
X265325Y758107D01*
X265329Y758107D01*
X265485Y758361D01*
X265484Y758367D01*
X265489Y758368D01*
X265603Y758644D01*
X265601Y758650D01*
X265605Y758651D01*
X265675Y758941D01*
X265673Y758947D01*
X265676Y758949D01*
X265699Y759246D01*
X265697Y759249D01*
X265699Y759250D01*
X265676Y765047D01*
X265671Y765054D01*
X265675Y765059D01*
X265605Y765349D01*
X265600Y765352D01*
X265603Y765356D01*
X265489Y765632D01*
X265483Y765635D01*
X265485Y765639D01*
X265329Y765893D01*
X265324Y765895D01*
X265325Y765899D01*
X265132Y766126D01*
X265126Y766127D01*
X265126Y766132D01*
X264899Y766325D01*
X264893Y766325D01*
X264893Y766329D01*
X264639Y766485D01*
X264633Y766484D01*
X264632Y766489D01*
X264356Y766603D01*
X264350Y766601D01*
X264349Y766605D01*
X264059Y766675D01*
X264053Y766673D01*
X264051Y766676D01*
X263754Y766699D01*
X263751Y766698D01*
X263750Y766699D01*
X260150Y766699D01*
X260148Y766697D01*
X260146Y766699D01*
X259849Y766676D01*
X259845Y766672D01*
X259841Y766675D01*
X259551Y766605D01*
X259548Y766600D01*
X259544Y766603D01*
X259268Y766489D01*
X259265Y766483D01*
X259261Y766485D01*
X259007Y766329D01*
X259005Y766324D01*
X259001Y766325D01*
X258774Y766132D01*
X258773Y766126D01*
X258768Y766126D01*
X258575Y765899D01*
X258575Y765893D01*
X258571Y765893D01*
X258415Y765639D01*
X258416Y765633D01*
X258411Y765632D01*
X258297Y765356D01*
X258299Y765350D01*
X258295Y765349D01*
X258225Y765059D01*
X258228Y765053D01*
X258224Y765051D01*
X258201Y764754D01*
X258203Y764751D01*
X258201Y764750D01*
X258224Y758953D01*
X258229Y758946D01*
X258225Y758941D01*
X258295Y758651D01*
X258300Y758648D01*
X258297Y758644D01*
X258411Y758368D01*
X258417Y758365D01*
X258415Y758361D01*
X258571Y758107D01*
X258576Y758105D01*
X258575Y758101D01*
X258768Y757874D01*
X258774Y757873D01*
X258774Y757868D01*
X259001Y757675D01*
X259007Y757675D01*
X259007Y757671D01*
X259261Y757515D01*
X259267Y757516D01*
X259268Y757511D01*
X259544Y757397D01*
X259550Y757399D01*
X259551Y757395D01*
X259841Y757325D01*
X259847Y757328D01*
X259849Y757324D01*
X260146Y757301D01*
X260149Y757303D01*
X260150Y757301D01*
X263750Y757301D01*
X263752Y757303D01*
G37*
G36*
X247852Y757303D02*
X247852Y757303D01*
X247854Y757301D01*
X248151Y757324D01*
X248155Y757328D01*
X248159Y757325D01*
X248449Y757395D01*
X248452Y757400D01*
X248456Y757397D01*
X248732Y757511D01*
X248735Y757517D01*
X248739Y757515D01*
X248993Y757671D01*
X248995Y757676D01*
X248999Y757675D01*
X249226Y757868D01*
X249227Y757874D01*
X249232Y757874D01*
X249425Y758101D01*
X249425Y758107D01*
X249429Y758107D01*
X249585Y758361D01*
X249584Y758367D01*
X249589Y758368D01*
X249703Y758644D01*
X249701Y758650D01*
X249705Y758651D01*
X249775Y758941D01*
X249773Y758947D01*
X249776Y758949D01*
X249799Y759246D01*
X249797Y759249D01*
X249799Y759250D01*
X249776Y765047D01*
X249771Y765054D01*
X249775Y765059D01*
X249705Y765349D01*
X249700Y765352D01*
X249703Y765356D01*
X249589Y765632D01*
X249583Y765635D01*
X249585Y765639D01*
X249429Y765893D01*
X249424Y765895D01*
X249425Y765899D01*
X249232Y766126D01*
X249226Y766127D01*
X249226Y766132D01*
X248999Y766325D01*
X248993Y766325D01*
X248993Y766329D01*
X248739Y766485D01*
X248733Y766484D01*
X248732Y766489D01*
X248456Y766603D01*
X248450Y766601D01*
X248449Y766605D01*
X248159Y766675D01*
X248153Y766673D01*
X248151Y766676D01*
X247854Y766699D01*
X247851Y766698D01*
X247850Y766699D01*
X244250Y766699D01*
X244248Y766697D01*
X244246Y766699D01*
X243949Y766676D01*
X243945Y766672D01*
X243941Y766675D01*
X243651Y766605D01*
X243648Y766600D01*
X243644Y766603D01*
X243368Y766489D01*
X243365Y766483D01*
X243361Y766485D01*
X243107Y766329D01*
X243105Y766324D01*
X243101Y766325D01*
X242874Y766132D01*
X242873Y766126D01*
X242868Y766126D01*
X242675Y765899D01*
X242675Y765893D01*
X242671Y765893D01*
X242515Y765639D01*
X242516Y765633D01*
X242511Y765632D01*
X242397Y765356D01*
X242399Y765350D01*
X242395Y765349D01*
X242325Y765059D01*
X242328Y765053D01*
X242324Y765051D01*
X242301Y764754D01*
X242303Y764751D01*
X242301Y764750D01*
X242324Y758953D01*
X242329Y758946D01*
X242325Y758941D01*
X242395Y758651D01*
X242400Y758648D01*
X242397Y758644D01*
X242511Y758368D01*
X242517Y758365D01*
X242515Y758361D01*
X242671Y758107D01*
X242676Y758105D01*
X242675Y758101D01*
X242868Y757874D01*
X242874Y757873D01*
X242874Y757868D01*
X243101Y757675D01*
X243107Y757675D01*
X243107Y757671D01*
X243361Y757515D01*
X243367Y757516D01*
X243368Y757511D01*
X243644Y757397D01*
X243650Y757399D01*
X243651Y757395D01*
X243941Y757325D01*
X243947Y757328D01*
X243949Y757324D01*
X244246Y757301D01*
X244249Y757303D01*
X244250Y757301D01*
X247850Y757301D01*
X247852Y757303D01*
G37*
G36*
X263752Y731903D02*
X263752Y731903D01*
X263754Y731901D01*
X264051Y731924D01*
X264055Y731928D01*
X264059Y731925D01*
X264349Y731995D01*
X264352Y732000D01*
X264356Y731997D01*
X264632Y732111D01*
X264635Y732117D01*
X264639Y732115D01*
X264893Y732271D01*
X264895Y732276D01*
X264899Y732275D01*
X265126Y732468D01*
X265127Y732474D01*
X265132Y732474D01*
X265325Y732701D01*
X265325Y732707D01*
X265329Y732707D01*
X265485Y732961D01*
X265484Y732967D01*
X265489Y732968D01*
X265603Y733244D01*
X265601Y733250D01*
X265605Y733251D01*
X265675Y733541D01*
X265673Y733547D01*
X265676Y733549D01*
X265699Y733846D01*
X265697Y733849D01*
X265699Y733850D01*
X265676Y739647D01*
X265671Y739654D01*
X265675Y739659D01*
X265605Y739949D01*
X265600Y739952D01*
X265603Y739956D01*
X265489Y740232D01*
X265483Y740235D01*
X265485Y740239D01*
X265329Y740493D01*
X265324Y740495D01*
X265325Y740499D01*
X265132Y740726D01*
X265126Y740727D01*
X265126Y740732D01*
X264899Y740925D01*
X264893Y740925D01*
X264893Y740929D01*
X264639Y741085D01*
X264633Y741084D01*
X264632Y741089D01*
X264356Y741203D01*
X264350Y741201D01*
X264349Y741205D01*
X264059Y741275D01*
X264053Y741273D01*
X264051Y741276D01*
X263754Y741299D01*
X263751Y741298D01*
X263750Y741299D01*
X260150Y741299D01*
X260148Y741297D01*
X260146Y741299D01*
X259849Y741276D01*
X259845Y741272D01*
X259841Y741275D01*
X259551Y741205D01*
X259548Y741200D01*
X259544Y741203D01*
X259268Y741089D01*
X259265Y741083D01*
X259261Y741085D01*
X259007Y740929D01*
X259005Y740924D01*
X259001Y740925D01*
X258774Y740732D01*
X258773Y740726D01*
X258768Y740726D01*
X258575Y740499D01*
X258575Y740493D01*
X258571Y740493D01*
X258415Y740239D01*
X258416Y740233D01*
X258411Y740232D01*
X258297Y739956D01*
X258299Y739950D01*
X258295Y739949D01*
X258225Y739659D01*
X258228Y739653D01*
X258224Y739651D01*
X258201Y739354D01*
X258203Y739351D01*
X258201Y739350D01*
X258224Y733553D01*
X258229Y733546D01*
X258225Y733541D01*
X258295Y733251D01*
X258300Y733248D01*
X258297Y733244D01*
X258411Y732968D01*
X258417Y732965D01*
X258415Y732961D01*
X258571Y732707D01*
X258576Y732705D01*
X258575Y732701D01*
X258768Y732474D01*
X258774Y732473D01*
X258774Y732468D01*
X259001Y732275D01*
X259007Y732275D01*
X259007Y732271D01*
X259261Y732115D01*
X259267Y732116D01*
X259268Y732111D01*
X259544Y731997D01*
X259550Y731999D01*
X259551Y731995D01*
X259841Y731925D01*
X259847Y731928D01*
X259849Y731924D01*
X260146Y731901D01*
X260149Y731903D01*
X260150Y731901D01*
X263750Y731901D01*
X263752Y731903D01*
G37*
G36*
X247852Y731903D02*
X247852Y731903D01*
X247854Y731901D01*
X248151Y731924D01*
X248155Y731928D01*
X248159Y731925D01*
X248449Y731995D01*
X248452Y732000D01*
X248456Y731997D01*
X248732Y732111D01*
X248735Y732117D01*
X248739Y732115D01*
X248993Y732271D01*
X248995Y732276D01*
X248999Y732275D01*
X249226Y732468D01*
X249227Y732474D01*
X249232Y732474D01*
X249425Y732701D01*
X249425Y732707D01*
X249429Y732707D01*
X249585Y732961D01*
X249584Y732967D01*
X249589Y732968D01*
X249703Y733244D01*
X249701Y733250D01*
X249705Y733251D01*
X249775Y733541D01*
X249773Y733547D01*
X249776Y733549D01*
X249799Y733846D01*
X249797Y733849D01*
X249799Y733850D01*
X249776Y739647D01*
X249771Y739654D01*
X249775Y739659D01*
X249705Y739949D01*
X249700Y739952D01*
X249703Y739956D01*
X249589Y740232D01*
X249583Y740235D01*
X249585Y740239D01*
X249429Y740493D01*
X249424Y740495D01*
X249425Y740499D01*
X249232Y740726D01*
X249226Y740727D01*
X249226Y740732D01*
X248999Y740925D01*
X248993Y740925D01*
X248993Y740929D01*
X248739Y741085D01*
X248733Y741084D01*
X248732Y741089D01*
X248456Y741203D01*
X248450Y741201D01*
X248449Y741205D01*
X248159Y741275D01*
X248153Y741273D01*
X248151Y741276D01*
X247854Y741299D01*
X247851Y741298D01*
X247850Y741299D01*
X244250Y741299D01*
X244248Y741297D01*
X244246Y741299D01*
X243949Y741276D01*
X243945Y741272D01*
X243941Y741275D01*
X243651Y741205D01*
X243648Y741200D01*
X243644Y741203D01*
X243368Y741089D01*
X243365Y741083D01*
X243361Y741085D01*
X243107Y740929D01*
X243105Y740924D01*
X243101Y740925D01*
X242874Y740732D01*
X242873Y740726D01*
X242868Y740726D01*
X242675Y740499D01*
X242675Y740493D01*
X242671Y740493D01*
X242515Y740239D01*
X242516Y740233D01*
X242511Y740232D01*
X242397Y739956D01*
X242399Y739950D01*
X242395Y739949D01*
X242325Y739659D01*
X242328Y739653D01*
X242324Y739651D01*
X242301Y739354D01*
X242303Y739351D01*
X242301Y739350D01*
X242324Y733553D01*
X242329Y733546D01*
X242325Y733541D01*
X242395Y733251D01*
X242400Y733248D01*
X242397Y733244D01*
X242511Y732968D01*
X242517Y732965D01*
X242515Y732961D01*
X242671Y732707D01*
X242676Y732705D01*
X242675Y732701D01*
X242868Y732474D01*
X242874Y732473D01*
X242874Y732468D01*
X243101Y732275D01*
X243107Y732275D01*
X243107Y732271D01*
X243361Y732115D01*
X243367Y732116D01*
X243368Y732111D01*
X243644Y731997D01*
X243650Y731999D01*
X243651Y731995D01*
X243941Y731925D01*
X243947Y731928D01*
X243949Y731924D01*
X244246Y731901D01*
X244249Y731903D01*
X244250Y731901D01*
X247850Y731901D01*
X247852Y731903D01*
G37*
D10*
X191200Y720750D03*
X191200Y701650D03*
X215200Y711200D03*
X191200Y365150D03*
X191200Y346050D03*
X215200Y355600D03*
X191200Y200050D03*
X191200Y180950D03*
X215200Y190500D03*
X191200Y555650D03*
X191200Y536550D03*
X215200Y546100D03*
D11*
X501080Y320600D03*
D12*
X527880Y279350D03*
X527880Y431850D03*
X588880Y431850D03*
X588880Y279350D03*
D11*
X501080Y345600D03*
X501080Y365600D03*
X501080Y390600D03*
D13*
X208200Y650300D03*
X208200Y640100D03*
X208200Y629900D03*
X208200Y619700D03*
X325200Y619700D03*
X325200Y629900D03*
X325200Y640100D03*
X325200Y650300D03*
X208200Y294700D03*
X208200Y284500D03*
X208200Y274300D03*
X208200Y264100D03*
X325200Y264100D03*
X325200Y274300D03*
X325200Y284500D03*
X325200Y294700D03*
X208200Y129600D03*
X208200Y119400D03*
X208200Y109200D03*
X208200Y99000D03*
X325200Y99000D03*
X325200Y109200D03*
X325200Y119400D03*
X325200Y129600D03*
X208200Y485200D03*
X208200Y475000D03*
X208200Y464800D03*
X208200Y454600D03*
X325200Y454600D03*
X325200Y464800D03*
X325200Y475000D03*
X325200Y485200D03*
D14*
X311150Y763150D03*
X311150Y748150D03*
D15*
X247863Y764763D02*
X244237Y764763D01*
X247863Y764763D02*
X247863Y759237D01*
X244237Y759237D01*
X244237Y764763D01*
X244237Y762822D02*
X247863Y762822D01*
X260137Y759237D02*
X263763Y759237D01*
X260137Y759237D02*
X260137Y764763D01*
X263763Y764763D01*
X263763Y759237D01*
X263763Y762822D02*
X260137Y762822D01*
X247863Y739363D02*
X244237Y739363D01*
X247863Y739363D02*
X247863Y733837D01*
X244237Y733837D01*
X244237Y739363D01*
X244237Y737422D02*
X247863Y737422D01*
X260137Y733837D02*
X263763Y733837D01*
X260137Y733837D02*
X260137Y739363D01*
X263763Y739363D01*
X263763Y733837D01*
X263763Y737422D02*
X260137Y737422D01*
D16*
X471292Y171092D02*
X471292Y168308D01*
X468508Y168308D01*
X468508Y171092D01*
X471292Y171092D01*
X468508Y161892D02*
X468508Y159108D01*
X468508Y161892D02*
X471292Y161892D01*
X471292Y159108D01*
X468508Y159108D01*
X360012Y631312D02*
X357228Y631312D01*
X360012Y631312D02*
X360012Y628528D01*
X357228Y628528D01*
X357228Y631312D01*
X366428Y628528D02*
X369212Y628528D01*
X366428Y628528D02*
X366428Y631312D01*
X369212Y631312D01*
X369212Y628528D01*
X360012Y466212D02*
X357228Y466212D01*
X360012Y466212D02*
X360012Y463428D01*
X357228Y463428D01*
X357228Y466212D01*
X366428Y463428D02*
X369212Y463428D01*
X366428Y463428D02*
X366428Y466212D01*
X369212Y466212D01*
X369212Y463428D01*
M02*
