M48
;GenerationSoftware,Autodesk,EAGLE,9.6.2*%
;CreationDate,2022-02-09T22:17:37Z*%
FMAT,2
ICI,OFF
METRIC,TZ,000.000
T8C0.350
T7C0.900
T6C1.100
T5C1.200
T4C1.300
T3C1.321
T2C1.500
T1C3.175
%
G90
M71
T1
X6350Y69850
X55880Y74930
X55880Y3810
X5080Y3810
T2
X53488Y33110
X53488Y38010
T3
X20320Y22860
X20320Y6350
X2540Y62230
X2540Y67310
X10287Y27305
X10287Y10922
X50038Y21336
X40005Y46482
X39751Y62992
X55880Y52070
X55880Y16510
T4
X50089Y3251
X43891Y3251
X43891Y9449
X50089Y9449
T5
X46990Y6350
T6
X2540Y73660
X2540Y76200
X43180Y34290
X43180Y36830
X2540Y38100
X2540Y55880
X2540Y53340
X2540Y50800
X2540Y48260
X2540Y45720
X2540Y43180
X2540Y40640
T7
X33020Y21590
X33020Y38100
X25400Y38100
X25400Y21590
T8
X5080Y33020
X5080Y17780
X44450Y55880
X41910Y58420
X33020Y54610
X26670Y11430
X26670Y46990
X26670Y27940
X26670Y63500
X19050Y59690
X36830Y76200
X49530Y76200
X15240Y54610
X15240Y45720
X13970Y71120
X16510Y20320
X13970Y68580
X45720Y24130
X15240Y59690
X3810Y36830
X12700Y48260
X2540Y58420
X10160Y59690
X10160Y71120
X10160Y68580
X16510Y53340
X40640Y40640
X39370Y36830
X38100Y50800
X8890Y17780
X15240Y19050
X17780Y73660
X15240Y66040
X22860Y50800
X22860Y31750
X22860Y15240
X55880Y62230
X22860Y67310
M30